<?xml version="1.0" standalone="no"?>
<!DOCTYPE svg PUBLIC "-//W3C//DTD SVG 20010904//EN"
 "http://www.w3.org/TR/2001/REC-SVG-20010904/DTD/svg10.dtd">
<svg version="1.0" xmlns="http://www.w3.org/2000/svg"
 width="1177.000000pt" height="1280.000000pt" viewBox="0 0 1177.000000 1280.000000"
 preserveAspectRatio="xMidYMid meet">
<metadata>
Created by potrace 1.15, written by Peter Selinger 2001-2017
</metadata>
<g transform="translate(0.000000,1280.000000) scale(0.100000,-0.100000)"
fill="#000000" stroke="none">
<path d="M3205 12491 c-94 -27 -228 -101 -390 -214 -257 -181 -404 -312 -510
-456 -82 -112 -147 -171 -228 -207 -94 -43 -422 -208 -507 -255 -376 -209
-797 -496 -943 -644 -107 -108 -194 -250 -231 -377 -21 -72 -20 -113 3 -163
38 -84 112 -119 205 -95 80 20 92 27 606 330 314 185 379 221 561 309 137 67
349 151 379 151 14 0 69 -192 80 -280 53 -416 61 -1293 21 -2230 -27 -629 -46
-998 -71 -1400 -6 -91 -17 -275 -25 -410 -17 -277 -35 -546 -65 -955 -6 -77
-17 -234 -25 -350 -22 -308 -33 -464 -45 -610 -6 -71 -17 -220 -25 -330 -14
-190 -22 -293 -45 -582 -17 -198 -28 -350 -45 -573 -8 -113 -20 -261 -25 -330
-6 -69 -15 -179 -20 -245 -45 -559 -37 -1156 19 -1430 45 -219 118 -353 223
-406 50 -25 138 -25 214 1 75 26 258 119 394 200 254 151 596 393 659 465 101
115 91 225 -30 326 -87 73 -172 212 -200 329 -25 103 -32 397 -16 710 22 440
38 722 57 995 5 83 17 251 25 375 8 124 19 277 25 340 5 63 14 171 19 240 6
69 16 177 21 240 17 173 18 189 25 275 9 103 37 221 69 282 47 93 106 128 271
161 299 61 615 66 810 14 307 -82 559 -294 811 -684 48 -73 97 -149 109 -168
13 -19 62 -98 110 -175 115 -183 252 -401 280 -445 13 -19 90 -141 172 -270
210 -329 243 -380 448 -690 240 -362 474 -701 580 -840 23 -30 70 -93 105
-140 205 -275 381 -481 590 -690 429 -430 814 -687 1260 -843 486 -170 1020
-153 1619 49 146 49 170 59 346 145 185 89 350 191 426 261 43 39 106 117 141
173 65 104 94 252 61 315 -48 92 -167 107 -318 40 -83 -36 -229 -82 -311 -96
-48 -8 -88 -13 -90 -12 -2 2 19 37 46 78 91 137 162 328 196 527 30 178 8 526
-47 748 -144 570 -473 969 -855 1036 -487 85 -923 -393 -1029 -1126 -26 -176
-30 -418 -11 -565 9 -69 19 -133 22 -143 5 -17 3 -17 -17 -6 -59 31 -752 745
-869 895 -14 17 -61 76 -105 130 -252 309 -619 846 -977 1427 -210 341 -242
394 -258 422 -19 33 -243 403 -392 645 -52 85 -141 226 -197 313 -164 252
-187 319 -134 392 17 23 138 123 286 235 142 107 272 206 290 220 319 243 780
674 973 910 201 245 368 510 475 751 44 99 132 342 144 396 2 10 15 61 28 113
100 395 117 913 43 1315 -2 11 -7 38 -11 60 -48 266 -177 587 -334 825 -135
206 -346 424 -556 575 -381 274 -855 446 -1445 524 -203 27 -357 33 -680 28
-184 -3 -382 -11 -440 -16 -233 -23 -451 -48 -580 -67 -288 -43 -472 -76 -613
-113 -65 -17 -135 -31 -156 -31 l-38 0 -23 88 c-52 199 -104 265 -235 296 -11
2 -47 -3 -80 -13z m1630 -1121 c208 -14 392 -37 535 -67 41 -8 86 -18 100 -20
57 -11 242 -68 344 -105 305 -112 609 -314 780 -518 226 -270 368 -586 430
-955 48 -282 48 -694 1 -950 -40 -216 -138 -485 -247 -679 -124 -221 -249
-388 -437 -579 -487 -497 -1045 -780 -1891 -958 -114 -24 -378 -56 -578 -70
-248 -17 -398 8 -433 73 -15 28 -11 114 41 861 23 335 31 454 45 697 9 140 20
325 25 410 5 85 14 238 20 340 5 102 14 266 20 365 5 99 14 304 20 455 6 151
15 379 20 505 6 127 10 418 10 648 0 251 4 426 10 436 15 30 82 50 228 70 345
48 644 61 957 41z"/>
</g>
</svg>
