<?xml version="1.0" standalone="no"?>
<!DOCTYPE svg PUBLIC "-//W3C//DTD SVG 20010904//EN"
 "http://www.w3.org/TR/2001/REC-SVG-20010904/DTD/svg10.dtd">
<svg version="1.0" xmlns="http://www.w3.org/2000/svg"
 width="700.000000pt" height="700.000000pt" viewBox="0 0 700.000000 700.000000"
 preserveAspectRatio="xMidYMid meet">
<metadata>
Created by potrace 1.11, written by Peter Selinger 2001-2013
</metadata>
<g transform="translate(0.000000,700.000000) scale(0.100000,-0.100000)"
fill="#000000" stroke="none">
<path d="M0 3500 l0 -3500 3500 0 3500 0 0 3500 0 3500 -3500 0 -3500 0 0
-3500z m2543 1409 c248 -36 469 -144 603 -292 102 -112 167 -238 206 -395 31
-124 31 -360 0 -484 -76 -306 -280 -529 -573 -628 -176 -60 -201 -62 -684 -69
l-450 -6 0 -465 0 -465 178 -29 178 -29 -3 -136 -3 -136 -562 -3 -563 -2 0
138 0 139 173 29 172 30 3 1241 2 1242 -52 10 c-63 12 -285 51 -293 51 -3 0
-5 61 -5 135 l0 135 801 0 c516 0 826 -4 872 -11z m3687 -334 l0 -345 -179 0
c-177 0 -179 0 -184 23 -3 12 -11 93 -18 180 l-12 157 -354 0 -353 0 2 -1242
3 -1242 164 -28 c90 -15 170 -29 178 -32 11 -5 13 -32 11 -138 l-3 -133 -562
-3 -563 -2 0 138 0 139 173 29 172 30 3 1242 2 1242 -350 0 -350 0 -4 -22 c-3
-13 -10 -94 -17 -180 l-12 -158 -183 0 -184 0 0 345 0 345 1310 0 1310 0 0
-345z"/>
<path d="M1642 3983 l3 -608 410 0 c443 0 468 3 590 59 121 56 229 184 276
327 21 66 24 91 23 224 0 136 -3 156 -26 217 -73 192 -198 310 -385 365 -49
14 -120 17 -476 21 l-417 3 2 -608z"/>
</g>
</svg>
