<?xml version="1.0" standalone="no"?>
<!DOCTYPE svg PUBLIC "-//W3C//DTD SVG 20010904//EN"
 "http://www.w3.org/TR/2001/REC-SVG-20010904/DTD/svg10.dtd">
<svg version="1.0" xmlns="http://www.w3.org/2000/svg"
 width="52.000000pt" height="29.000000pt" viewBox="0 0 52.000000 29.000000"
 preserveAspectRatio="xMidYMid meet">

<g transform="translate(0.000000,29.000000) scale(0.100000,-0.100000)"
fill="#000000" stroke="none">
<path d="M0 145 l0 -145 260 0 260 0 0 145 0 145 -260 0 -260 0 0 -145z m217
83 c29 -27 30 -77 4 -109 -19 -23 -19 -24 1 -51 l19 -28 -29 0 c-21 0 -35 8
-46 25 -14 21 -25 25 -61 25 -41 0 -45 -2 -45 -25 0 -18 -5 -25 -20 -25 -17 0
-20 7 -20 50 l0 50 79 0 c82 0 107 12 95 43 -4 13 -24 17 -87 19 -76 3 -82 5
-85 26 -3 21 -1 22 84 22 76 0 91 -3 111 -22z m233 -78 c27 -55 50 -102 50
-105 0 -3 -10 -5 -23 -5 -19 0 -30 13 -57 70 -19 39 -37 70 -40 70 -3 0 -21
-31 -40 -70 -30 -63 -37 -70 -63 -70 -28 0 -29 1 -14 23 8 12 33 60 56 105 56
112 66 111 131 -18z"/>
</g>
</svg>
